# xmcd
#
# Track frame offsets: 
#        150
#        22323
#        56779
#        81188
#        100535
#        136494
#        164462
#        192635
#        221466
#        241387
#        260160
#
# Disc length: 3754 seconds
#
# Revision: 0
# Processed by: cddbd v1.5.2PL0 Copyright (c) Steve Scherf et al.
# Submitted via: ExactAudioCopyFreeDBPlugin 1.0
#
DISCID=a50ea80b
DTITLE=Derrick James and Wesley "G" Quintet - Two Sides To Every Story
DYEAR=2001
DGENRE=Jazz
TTITLE0=Dangerous Ground
TTITLE1=Misunderstood
TTITLE2=Destiny
TTITLE3=Standard Procedure
TTITLE4=Two Sides To Every Story
TTITLE5=Waltz For Wasili
TTITLE6=Jackpot
TTITLE7=Waiting For Summer
TTITLE8=Right Before My Eyes
TTITLE9=Sneaking In The Backdoor
TTITLE10=Hanging On Sunday
EXTD=
EXTT0=
EXTT1=
EXTT2=
EXTT3=
EXTT4=
EXTT5=
EXTT6=
EXTT7=
EXTT8=
EXTT9=
EXTT10=
PLAYORDER=
